<?xml version="1.0" encoding="UTF-8" standalone="no"?>
<svg width="248px" height="25px" viewBox="0 0 248 25" version="1.1" xmlns="http://www.w3.org/2000/svg" xmlns:xlink="http://www.w3.org/1999/xlink" xmlns:sketch="http://www.bohemiancoding.com/sketch/ns">
    <!-- Generator: Sketch 3.3.2 (12043) - http://www.bohemiancoding.com/sketch -->
    <title>GYMblog-logo</title>
    <desc>Created with Sketch.</desc>
    <defs></defs>
    <g id="Page-1" stroke="none" stroke-width="1" fill="none" fill-rule="evenodd" sketch:type="MSPage">
        <g id="GYMblog-logo" sketch:type="MSLayerGroup">
            <text id="blog?" sketch:type="MSTextLayer" font-family="Big Caslon" font-size="14" font-weight="420" fill="#EC8F2D">
                <tspan x="218" y="17">blog?</tspan>
            </text>
            <g id="Group" fill="#7B7C7B" sketch:type="MSShapeGroup">
                <path d="M12.651,24.966 C5.908,24.966 0.626,19.699 0.626,12.975 C0.626,6.307 6.021,0.882 12.651,0.882 C15.568,0.882 18.473,1.991 20.829,4.001 C20.929,4.101 20.989,4.235 20.989,4.371 C20.989,4.491 20.942,4.6 20.854,4.689 L18.744,6.902 C18.646,6.999 18.544,7.05 18.444,7.05 C18.34,7.05 18.228,6.996 18.108,6.891 C16.638,5.59 14.772,4.874 12.856,4.874 C8.559,4.874 5.062,8.493 5.062,12.942 C5.062,17.333 8.573,20.907 12.89,20.907 C14.848,20.907 16.357,20.302 17.002,20.043 L17.114,19.998 L17.114,16.807 L14.216,16.807 C13.95,16.807 13.749,16.621 13.749,16.375 L13.749,13.69 C13.749,13.415 13.941,13.223 14.216,13.223 L20.743,13.223 C20.973,13.223 21.175,13.442 21.175,13.69 L21.175,22.393 C21.175,22.559 21.107,22.694 20.976,22.791 C20.952,22.805 17.468,24.966 12.651,24.966" id="Fill-12"></path>
                <path d="M33.263,24.66 C32.976,24.66 32.798,24.418 32.798,24.195 L32.798,13.327 L25.015,1.927 C24.922,1.776 24.913,1.594 24.995,1.447 C25.075,1.304 25.227,1.222 25.411,1.222 L28.878,1.222 C29.031,1.222 29.158,1.296 29.276,1.456 L34.86,9.483 L40.447,1.451 C40.564,1.297 40.692,1.222 40.845,1.222 L44.347,1.222 C44.53,1.222 44.682,1.304 44.762,1.448 C44.844,1.594 44.834,1.776 44.736,1.934 L36.856,13.292 L36.856,24.195 C36.856,24.434 36.631,24.66 36.392,24.66 L33.263,24.66" id="Fill-13"></path>
                <path d="M59.755,25 C59.563,25 59.434,24.915 59.337,24.725 L53.275,11.266 L52.903,11.266 L50.909,24.303 C50.888,24.448 50.695,24.66 50.474,24.66 L47.415,24.66 C47.252,24.66 47.123,24.61 47.041,24.515 C46.953,24.414 46.921,24.265 46.946,24.083 L50.99,1.243 C51.003,1.153 51.065,0.882 51.427,0.882 L51.97,0.882 C52.159,0.882 52.311,0.97 52.387,1.122 L59.912,17.269 L60.244,17.269 L67.771,1.118 C67.854,0.954 67.978,0.882 68.187,0.882 L68.729,0.882 C69.091,0.882 69.153,1.153 69.164,1.236 L73.177,24.089 C73.216,24.27 73.193,24.414 73.113,24.514 C73.036,24.608 72.904,24.66 72.741,24.66 L69.647,24.66 C69.423,24.66 69.222,24.439 69.176,24.281 L67.151,11.266 L66.778,11.266 L60.78,24.733 C60.733,24.871 60.606,25 60.368,25 L59.755,25" id="Fill-14"></path>
                <path d="M97.744,25 L83.533,9.396 L83.274,9.396 L83.241,9.575 L83.241,24.195 C83.241,24.418 83.063,24.66 82.774,24.66 L79.681,24.66 C79.44,24.66 79.214,24.434 79.214,24.195 L79.214,1.315 C79.214,1.084 79.433,0.882 79.681,0.882 L80.452,0.882 L94.595,15.908 L94.853,15.908 L94.888,15.729 L94.888,1.689 C94.888,1.464 95.065,1.222 95.353,1.222 L98.481,1.222 C98.721,1.222 98.946,1.449 98.946,1.689 L98.946,24.569 C98.946,24.798 98.729,25 98.481,25 L97.744,25" id="Fill-15"></path>
                <path d="M135.612,25 C131.22,25 128.715,22.832 128.258,22.398 C127.962,22.102 127.881,22.022 128.121,21.597 L129.342,19.491 C129.493,19.226 129.733,19.187 129.863,19.187 C130.001,19.187 130.136,19.23 130.232,19.305 L130.338,19.375 C132.34,20.733 134.116,21.45 135.476,21.45 C137.312,21.45 138.749,20.222 138.749,18.653 C138.749,16.933 137.425,15.662 134.32,14.407 C131.624,13.317 128.04,11.387 128.04,7.23 C128.04,4.173 130.378,0.882 135.511,0.882 C139.039,0.882 141.703,2.75 142.201,3.124 C142.327,3.201 142.411,3.333 142.446,3.497 C142.485,3.683 142.455,3.87 142.365,3.998 L141.072,5.941 C140.896,6.205 140.628,6.377 140.391,6.377 C140.298,6.377 140.211,6.351 140.132,6.298 C138.982,5.567 136.905,4.399 135.306,4.399 C133.321,4.399 132.136,5.699 132.136,6.958 C132.136,8.588 133.33,9.74 136.259,10.933 C139.717,12.323 143.251,14.302 143.251,18.449 C143.251,21.624 140.573,25 135.612,25" id="Fill-16"></path>
                <path d="M150.035,24.66 C149.795,24.66 149.568,24.434 149.568,24.195 L149.568,1.689 C149.568,1.449 149.795,1.222 150.035,1.222 L153.197,1.222 C153.437,1.222 153.662,1.449 153.662,1.689 L153.662,24.195 C153.662,24.434 153.437,24.66 153.197,24.66 L150.035,24.66" id="Fill-17"></path>
                <path d="M170.162,25 C164.963,25 160.891,20.973 160.891,15.831 L160.891,1.689 C160.891,1.449 161.117,1.222 161.357,1.222 L164.586,1.222 C164.874,1.222 165.053,1.464 165.053,1.689 L165.053,15.593 C165.053,18.692 167.201,20.94 170.162,20.94 C173.143,20.94 175.305,18.705 175.305,15.627 L175.305,1.689 C175.305,1.464 175.483,1.222 175.771,1.222 L179.002,1.222 C179.241,1.222 179.467,1.449 179.467,1.689 L179.467,15.831 C179.467,20.973 175.38,25 170.162,25" id="Fill-18"></path>
                <path d="M197.26,25 C197.067,25 196.938,24.915 196.842,24.725 L190.78,11.266 L190.408,11.266 L188.414,24.303 C188.393,24.448 188.2,24.66 187.979,24.66 L184.92,24.66 C184.757,24.66 184.628,24.61 184.546,24.515 C184.458,24.414 184.426,24.265 184.451,24.083 L188.495,1.243 C188.508,1.153 188.57,0.882 188.932,0.882 L189.475,0.882 C189.664,0.882 189.815,0.97 189.892,1.122 L197.417,17.269 L197.749,17.269 L205.276,1.118 C205.358,0.954 205.482,0.882 205.691,0.882 L206.234,0.882 C206.596,0.882 206.658,1.153 206.669,1.236 L210.682,24.089 C210.721,24.27 210.698,24.414 210.618,24.514 C210.541,24.608 210.409,24.66 210.246,24.66 L207.152,24.66 C206.928,24.66 206.727,24.439 206.681,24.281 L204.656,11.266 L204.283,11.266 L198.285,24.733 C198.238,24.871 198.111,25 197.873,25 L197.26,25" id="Fill-20"></path>
                <path d="M111.56,16.259 L112.112,20.745 L116.602,20.194 L116.048,15.709 L111.56,16.259" id="Fill-22"></path>
                <path d="M115.724,0.881 L112.427,0.873 L102.804,24.721 L107.038,24.721 L114.039,6.866 L121.048,24.721 L125.28,24.721 L115.724,0.881" id="Fill-23"></path>
            </g>
        </g>
    </g>
</svg>