<svg xmlns="http://www.w3.org/2000/svg" width="265" height="32" viewBox="0 0 265 32" version="1.1"><title>Gymnasium logo</title><g stroke="none" stroke-width="1" fill="none" fill-rule="evenodd"><g transform="translate(0.000000, 0.250000)"><path d="M15.4 31.1C7 31.1 0.3 24.3 0.3 15.7 0.3 7.2 7.1 0.3 15.4 0.3 19.1 0.3 22.8 1.7 25.7 4.3 25.9 4.4 25.9 4.6 25.9 4.7 25.9 4.9 25.9 5 25.8 5.1L23.1 8C23 8.1 22.9 8.2 22.7 8.2 22.6 8.2 22.5 8.1 22.3 8 20.5 6.3 18.1 5.4 15.7 5.4 10.3 5.4 5.9 10 5.9 15.7 5.9 21.3 10.3 25.9 15.7 25.9 18.2 25.9 20.1 25.1 20.9 24.8L21.1 24.7 21.1 20.6 17.4 20.6C17.1 20.6 16.8 20.4 16.8 20.1L16.8 16.7C16.8 16.3 17.1 16.1 17.4 16.1L25.6 16.1C25.9 16.1 26.2 16.3 26.2 16.7L26.2 27.8C26.2 28 26.1 28.2 25.9 28.3 25.9 28.3 21.5 31.1 15.4 31.1" fill="#999"/><path d="M41.4 30.7C41 30.7 40.8 30.4 40.8 30.1L40.8 16.2 31 1.6C30.9 1.4 30.9 1.2 31 1 31.1 0.8 31.3 0.7 31.5 0.7L35.9 0.7C36 0.7 36.2 0.8 36.4 1L43.4 11.3 50.4 1C50.6 0.8 50.7 0.7 50.9 0.7L55.3 0.7C55.5 0.7 55.7 0.8 55.8 1 55.9 1.2 55.9 1.4 55.8 1.6L45.9 16.1 45.9 30.1C45.9 30.4 45.6 30.7 45.3 30.7L41.4 30.7" fill="#999"/><path d="M74.7 31.1C74.4 31.1 74.3 31 74.2 30.8L66.5 13.6 66.1 13.6 63.6 30.2C63.5 30.4 63.3 30.7 63 30.7L59.2 30.7C59 30.7 58.8 30.6 58.7 30.5 58.6 30.4 58.5 30.2 58.6 30L63.7 0.7C63.7 0.6 63.8 0.3 64.2 0.3L64.9 0.3C65.1 0.3 65.3 0.4 65.4 0.6L74.9 21.2 75.3 21.2 84.8 0.6C84.9 0.4 85 0.3 85.3 0.3L86 0.3C86.4 0.3 86.5 0.6 86.5 0.7L91.6 30C91.6 30.2 91.6 30.4 91.5 30.5 91.4 30.6 91.2 30.7 91 30.7L87.1 30.7C86.9 30.7 86.6 30.4 86.5 30.2L84 13.6 83.5 13.6 76 30.8C75.9 31 75.8 31.1 75.5 31.1L74.7 31.1" fill="#999"/><path d="M122.5 31.1L104.6 11.2 104.3 11.2 104.2 11.4 104.2 30.1C104.2 30.4 104 30.7 103.6 30.7L99.8 30.7C99.5 30.7 99.2 30.4 99.2 30.1L99.2 0.8C99.2 0.5 99.4 0.3 99.8 0.3L100.7 0.3 118.5 19.5 118.8 19.5 118.9 19.3 118.9 1.3C118.9 1 119.1 0.7 119.5 0.7L123.4 0.7C123.7 0.7 124 1 124 1.3L124 30.6C124 30.9 123.7 31.1 123.4 31.1L122.5 31.1" fill="#999"/><path d="M170.1 31.1C164.6 31.1 161.4 28.4 160.9 27.8 160.5 27.4 160.4 27.3 160.7 26.8L162.2 24.1C162.4 23.7 162.7 23.7 162.9 23.7 163 23.7 163.2 23.7 163.3 23.8L163.5 23.9C166 25.7 168.2 26.6 169.9 26.6 172.2 26.6 174.1 25 174.1 23 174.1 20.8 172.4 19.2 168.5 17.6 165.1 16.2 160.6 13.7 160.6 8.4 160.6 4.5 163.5 0.3 170 0.3 174.4 0.3 177.8 2.7 178.4 3.1 178.6 3.2 178.7 3.4 178.7 3.6 178.8 3.8 178.7 4.1 178.6 4.2L177 6.7C176.8 7.1 176.4 7.3 176.1 7.3 176 7.3 175.9 7.3 175.8 7.2 174.3 6.3 171.7 4.8 169.7 4.8 167.2 4.8 165.7 6.4 165.7 8 165.7 10.1 167.2 11.6 170.9 13.1 175.3 14.9 179.7 17.4 179.7 22.7 179.7 26.8 176.3 31.1 170.1 31.1" fill="#999"/><path d="M188.2 30.7C187.9 30.7 187.7 30.4 187.7 30.1L187.7 1.3C187.7 1 187.9 0.7 188.2 0.7L192.2 0.7C192.5 0.7 192.8 1 192.8 1.3L192.8 30.1C192.8 30.4 192.5 30.7 192.2 30.7L188.2 30.7" fill="#999"/><path d="M213.6 31.1C207 31.1 201.9 26 201.9 19.4L201.9 1.3C201.9 1 202.2 0.7 202.5 0.7L206.6 0.7C206.9 0.7 207.1 1 207.1 1.3L207.1 19.1C207.1 23.1 209.8 25.9 213.6 25.9 217.3 25.9 220 23.1 220 19.1L220 1.3C220 1 220.3 0.7 220.6 0.7L224.7 0.7C225 0.7 225.3 1 225.3 1.3L225.3 19.4C225.3 26 220.1 31.1 213.6 31.1" fill="#999"/><path d="M247.7 31.1C247.4 31.1 247.2 31 247.1 30.8L239.5 13.6 239 13.6 236.5 30.2C236.5 30.4 236.3 30.7 236 30.7L232.1 30.7C231.9 30.7 231.8 30.6 231.7 30.5 231.5 30.4 231.5 30.2 231.5 30L236.6 0.7C236.6 0.6 236.7 0.3 237.2 0.3L237.9 0.3C238.1 0.3 238.3 0.4 238.4 0.6L247.8 21.2 248.3 21.2 257.7 0.6C257.8 0.4 258 0.3 258.3 0.3L258.9 0.3C259.4 0.3 259.5 0.6 259.5 0.7L264.5 30C264.6 30.2 264.6 30.4 264.5 30.5 264.4 30.6 264.2 30.7 264 30.7L260.1 30.7C259.8 30.7 259.6 30.4 259.5 30.2L257 13.6 256.5 13.6 248.9 30.8C248.9 31 248.7 31.1 248.4 31.1L247.7 31.1" fill="#999"/><path d="M139.9 19.9L140.5 25.7 146.2 25 145.5 19.2 139.9 19.9" fill="#EC8F2D"/><path d="M145.1 0.3L140.9 0.2 128.8 30.8 134.2 30.8 143 7.9 151.8 30.8 157.1 30.8 145.1 0.3" fill="#EC8F2D"/></g></g></svg>
