<svg xmlns="http://www.w3.org/2000/svg" width="210" height="25" viewBox="0 0 210 25"><title>Gymnasium Logo (White/Orange)</title><g fill="none"><path fill="#fff" d="M12.025 24.084C5.282 24.084 0 18.817 0 12.093 0 5.425 5.395 0 12.025 0c2.917 0 5.822 1.109 8.178 3.119.1.1.16.234.16.37 0 .12-.047.229-.134.318L18.118 6.02c-.098.097-.2.148-.3.148-.104 0-.217-.054-.336-.159-1.47-1.301-3.335-2.017-5.252-2.017-4.297 0-7.795 3.619-7.795 8.068 0 4.391 3.512 7.965 7.829 7.965 1.958 0 3.467-.605 4.112-.864l.112-.045v-3.191H13.59c-.266 0-.467-.186-.467-.432v-2.685c0-.275.192-.467.467-.467h6.527c.23 0 .432.219.432.467v8.703c0 .166-.068.301-.199.398-.024.014-3.508 2.175-8.325 2.175M32.324 23.438c-.287 0-.465-.242-.465-.465V12.105L24.076.705c-.093-.151-.102-.333-.02-.48.08-.143.232-.225.416-.225h3.467c.153 0 .28.074.398.234l5.584 8.027L39.508.229c.117-.154.245-.229.398-.229h3.502c.183 0 .335.082.415.226.082.146.072.328-.026.486l-7.88 11.358v10.903c0 .239-.225.465-.464.465h-3.129M58.817 24.118c-.192 0-.321-.085-.418-.275l-6.062-13.459h-.372l-1.994 13.037c-.021.145-.214.357-.435.357h-3.059c-.163 0-.292-.05-.374-.145-.088-.101-.12-.25-.095-.432L50.052.361c.013-.09.075-.361.437-.361h.543c.189 0 .341.088.417.24l7.525 16.147h.332L66.833.236c.083-.164.207-.236.416-.236h.542c.362 0 .424.271.435.354l4.013 22.853c.039.181.016.325-.064.425-.077.094-.209.146-.372.146h-3.094c-.224 0-.425-.221-.471-.379l-2.025-13.015h-.373l-5.998 13.467c-.047.138-.174.267-.412.267h-.613M96.53 24.118L82.319 8.514h-.259l-.033.179v14.62c0 .223-.178.465-.467.465h-3.093c-.241 0-.467-.226-.467-.465V.433c0-.231.219-.433.467-.433h.771l14.143 15.026h.258l.035-.179V.807c0-.225.177-.467.465-.467h3.128c.24 0 .465.227.465.467v22.88c0 .229-.217.431-.465.431h-.737M134.632 24.118c-4.392 0-6.897-2.168-7.354-2.602-.296-.296-.377-.376-.137-.801l1.221-2.106c.151-.265.391-.304.521-.304.138 0 .273.043.369.118l.106.07c2.002 1.358 3.778 2.075 5.138 2.075 1.836 0 3.273-1.228 3.273-2.797 0-1.72-1.324-2.991-4.429-4.246-2.696-1.09-6.28-3.02-6.28-7.177 0-3.057 2.338-6.348 7.471-6.348 3.528 0 6.192 1.868 6.69 2.242.126.077.21.209.245.373.039.186.009.373-.081.501l-1.293 1.943c-.176.264-.444.436-.681.436-.093 0-.18-.026-.259-.079-1.15-.731-3.227-1.899-4.826-1.899-1.985 0-3.17 1.3-3.17 2.559 0 1.63 1.194 2.782 4.123 3.975 3.458 1.39 6.992 3.369 6.992 7.516 0 3.175-2.678 6.551-7.639 6.551M149.467 23.438c-.24 0-.467-.226-.467-.465V.467c0-.24.227-.467.467-.467h3.162c.24 0 .465.227.465.467v22.506c0 .239-.225.465-.465.465h-3.162M169.271 23.778c-5.199 0-9.271-4.027-9.271-9.169V.467c0-.24.226-.467.466-.467h3.229c.288 0 .467.242.467.467v13.904c0 3.099 2.148 5.347 5.109 5.347 2.981 0 5.143-2.235 5.143-5.313V.467c0-.225.178-.467.466-.467h3.231c.239 0 .465.227.465.467v14.142c0 5.142-4.087 9.169-9.305 9.169M195.817 24.118c-.193 0-.322-.085-.418-.275l-6.062-13.459h-.372l-1.994 13.037c-.021.145-.214.357-.435.357h-3.059c-.163 0-.292-.05-.374-.145-.088-.101-.12-.25-.095-.432l4.044-22.84c.013-.09.075-.361.437-.361h.543c.189 0 .34.088.417.24l7.525 16.147h.332L203.833.236c.082-.164.206-.236.415-.236h.543c.362 0 .424.271.435.354l4.013 22.853c.039.181.016.325-.064.425-.077.094-.209.146-.372.146h-3.094c-.224 0-.425-.221-.471-.379l-2.025-13.015h-.373l-5.998 13.467c-.047.138-.174.267-.412.267h-.613"/><path fill="#f8971d" d="M111 15.55l.552 4.486 4.49-.551-.554-4.485-4.488.55"/><path fill="#f8971d" d="M114.92.008L111.623 0 102 23.848h4.234l7.001-17.855 7.009 17.855h4.232L114.92.008"/></g></svg>